:SAMPLES-PER-SECOND 30
:FULLY-SPECIFIED
:DEGREES
615
root  14.8651 32.4969 -18.0836 0.164215 -1.27716 85.8317
Spine  -3.62121 -5.17537 0.925389
Spine1  -2.8517 5.47868 -1.15677
Neck  3.97569e-016 0 -2.38542e-015
Head  -46.7817 -11.1754 15.2132
R_Clavicle  0.790072 6.77156 3.60292
R_UpperArm  22.6576 -2.19255 -2.92847
R_Forearm  18.3758 -10.1446 8.52459
R_Hand  -0.317133 4.89255 -11.6847
L_Clavicle  0.26428 1.17181 -2.29209
L_UpperArm  -15.8 21.3904 40.6688
L_Forearm  -6.40445 24.3094 31.4526
L_Hand  0.128661 7.40548 1.3424
L_Thigh  4.48839 7.96388 1.44379
L_Calf  9.5827 -1.74709 12.5522
L_Foot  0.593575 -0.0229069 3.02232
L_Toe0  0.89539 0.0137851 -6.35678
R_Thigh  3.14264 -6.34181 -7.42424
R_Calf  -11.2396 7.09855 22.7169
R_Foot  2.49199 7.77075 -5.50114
R_Toe0  -2.92208 0.241444 -9.36147
616
root  14.8727 32.7759 -17.892 1.76593 -0.366389 85.3875
Spine  -3.41845 -5.3641 -0.386015
Spine1  -2.66627 5.17707 -1.34169
Neck  3.97569e-016 0 -2.38542e-015
Head  -47.5301 -11.0387 17.6781
R_Clavicle  0.601683 3.49266 2.94667
R_UpperArm  18.8341 2.29067 -4.30724
R_Forearm  18.562 -11.8687 10.0324
R_Hand  -0.464146 4.99486 -13.1899
L_Clavicle  0.0871201 4.57943 -2.11097
L_UpperArm  -19.9803 21.678 44.5132
L_Forearm  -11.3306 25.9729 34.1281
L_Hand  0.0324054 6.88814 0.499256
L_Thigh  2.00626 2.85606 -0.0277805
L_Calf  10.1375 -1.31285 9.34541
L_Foot  0.984694 -2.6827 9.05588
L_Toe0  0.505156 0.034446 -6.1361
R_Thigh  8.95391 -3.85168 -7.97633
R_Calf  -1.93432 6.47891 20.6312
R_Foot  2.16562 7.38833 -0.168453
R_Toe0  -1.66409 -0.316016 -18.0687
617
root  14.9137 32.669 -17.6952 3.03476 0.505256 85.0957
Spine  -2.76367 -4.94503 -1.80773
Spine1  -2.08341 3.90713 -1.36851
Neck  3.97569e-016 0 -2.38542e-015
Head  -49.1682 -10.6973 19.5706
R_Clavicle  0.478692 0.79398 2.43137
R_UpperArm  16.9524 5.70703 -5.10057
R_Forearm  19.0022 -12.9512 10.9921
R_Hand  -0.61788 5.10898 -14.7436
L_Clavicle  -0.0451366 6.96753 -1.82905
L_UpperArm  -22.8878 20.7344 46.9293
L_Forearm  -16.5931 28.0638 37.0476
L_Hand  -0.0513367 6.39425 -0.297005
L_Thigh  -0.33382 -1.68639 -1.09506
L_Calf  6.49801 -0.921805 6.49491
L_Foot  1.56279 -2.67309 12.1666
L_Toe0  0.4573 0.0363043 -6.17866
R_Thigh  11.8507 -0.929493 -7.91647
R_Calf  2.50588 5.85552 18.5601
R_Foot  1.87265 6.83153 2.61209
R_Toe0  -2.29832 -0.242423 -16.8987
618
root  14.9221 32.2133 -17.4955 4.00354 1.0063 84.4723
Spine  -1.6777 -3.37893 -2.86109
Spine1  -1.21712 1.56936 -1.79008
Neck  3.97569e-016 0 -2.38542e-015
Head  -51.1961 -10.0097 21.5682
R_Clavicle  0.399947 0.0375493 2.0376
R_UpperArm  17.4365 7.4962 -5.63538
R_Forearm  19.7912 -13.716 11.6772
R_Hand  -0.824504 5.37924 -16.8063
L_Clavicle  -0.0753134 7.62457 -1.83096
L_UpperArm  -25.3599 20.1087 48.3789
L_Forearm  -18.4482 30.24 40.0639
L_Hand  -0.0788842 6.01078 -0.592966
L_Thigh  -1.15205 -5.01917 -3.29227
L_Calf  3.99555 -0.913527 6.45192
L_Foot  2.87283 0.734009 12.5954
L_Toe0  0.967754 0.0164824 -5.72464
R_Thigh  11.6397 2.77139 -9.11348
R_Calf  1.08813 5.91424 18.7341
R_Foot  0.547433 3.47404 4.74793
R_Toe0  -3.70875 -0.147104 -15.3898
619
root  14.8667 31.4896 -17.2961 4.936 1.34987 83.4382
Spine  -0.497364 -1.86529 -3.25886
Spine1  -0.257243 -0.361549 -2.75436
Neck  3.97569e-016 0 -2.38542e-015
Head  -52.7481 -9.41014 23.3202
R_Clavicle  0.313161 -0.794926 1.57464
R_UpperArm  17.6197 9.84414 -5.1296
R_Forearm  20.2786 -14.3591 12.258
R_Hand  -1.01351 5.19025 -18.5388
L_Clavicle  -0.097799 8.12175 -1.83113
L_UpperArm  -26.5666 18.823 50.0418
L_Forearm  -17.7305 32.0075 42.684
L_Hand  -0.0733354 6.01217 -0.527981
L_Thigh  0.0979192 -7.28977 -6.52138
L_Calf  2.31984 -1.13575 8.2025
L_Foot  5.59957 5.8415 15.5163
L_Toe0  2.27565 -0.0343196 -4.5612
R_Thigh  8.38041 6.41094 -10.8352
R_Calf  1.73953 5.90973 18.7347
R_Foot  -2.3692 -2.73028 11.2238
R_Toe0  -1.54799 -0.256776 -16.6185
620
root  14.8194 30.595 -17.0631 6.16159 2.27645 82.342
Spine  0.490027 -1.23347 -3.49853
Spine1  0.64958 -1.91373 -2.4809
Neck  3.97569e-016 0 -2.38542e-015
Head  -54.103 -8.85883 22.7745
R_Clavicle  0.281165 -3.71231 1.28585
R_UpperArm  17.0982 14.3443 -3.43285
R_Forearm  20.7342 -14.249 12.158
R_Hand  -1.10025 4.56737 -19.2825
L_Clavicle  -0.22949 9.91282 -0.917349
L_UpperArm  -26.5211 13.8589 50.7468
L_Forearm  -15.0872 34.3884 44.7947
L_Hand  -0.105442 6.24168 -0.77511
L_Thigh  1.48547 -9.78524 -7.85891
L_Calf  -1.40316 -0.754595 5.7869
L_Foot  10.4574 11.4697 23.9248
L_Toe0  0.361586 0.0400206 -6.26379
R_Thigh  4.76055 7.13828 -9.2158
R_Calf  3.21731 3.56751 11.398
R_Foot  -1.75133 0.290499 15.7007
R_Toe0  -1.79525 -0.274811 -17.3919
621
root  14.8625 29.7032 -16.7608 8.05029 4.20806 81.5448
Spine  1.13113 -0.568193 -4.04431
Spine1  1.17453 -5.15154 0.463619
Neck  3.97569e-016 0 -2.38542e-015
Head  -56.5058 -7.42366 19.9081
R_Clavicle  0.319399 -7.35754 1.38484
R_UpperArm  19.3907 18.8058 -1.01883
R_Forearm  22.6332 -12.7899 10.8475
R_Hand  -1.14297 4.08823 -19.6528
L_Clavicle  -0.373232 12.308 0.855508
L_UpperArm  -26.3732 5.03088 48.8757
L_Forearm  -9.5157 37.7669 46.7725
L_Hand  -0.179438 6.1775 -1.46492
L_Thigh  1.17096 -12.2459 -6.60819
L_Calf  -1.55157 0.185051 -0.623186
L_Foot  12.0685 10.8601 29.1859
L_Toe0  0.505139 0.0344462 -6.13611
R_Thigh  4.68294 4.85995 -7.33568
R_Calf  4.78057 1.23049 4.11352
R_Foot  -0.565078 3.74861 19.4804
R_Toe0  -1.78853 -0.272066 -17.3235
622
root  14.9372 29.0505 -16.4399 10.68 6.21987 80.9964
Spine  1.42574 1.03166 -4.62608
Spine1  0.999673 -10.0159 4.68329
Neck  3.97569e-016 0 -2.38542e-015
Head  -60.1133 -4.86479 18.04
R_Clavicle  0.359978 -8.89841 1.63548
R_UpperArm  25.2499 19.8854 1.55595
R_Forearm  26.027 -10.8376 9.12609
R_Hand  -1.20488 3.81101 -20.281
L_Clavicle  -0.418669 13.4179 1.81663
L_UpperArm  -26.2794 -2.8498 45.7462
L_Forearm  -2.41151 40.6024 48.6834
L_Hand  -0.218836 5.80838 -1.97701
L_Thigh  -0.399683 -14.026 -6.1304
L_Calf  0.914621 0.751873 -4.79002
L_Foot  14.1118 11.6274 33.6392
L_Toe0  0.504795 0.0344489 -6.13642
R_Thigh  7.59872 1.20051 -6.36834
R_Calf  4.10659 -0.337552 -0.797325
R_Foot  -0.081516 5.22576 22.5927
R_Toe0  -1.78853 -0.271299 -17.3236
623
root  14.9552 28.8056 -16.1957 13.4225 7.17197 80.5058
Spine  1.51319 2.25065 -5.08069
Spine1  0.58445 -13.1274 7.60346
Neck  3.97569e-016 0 -2.38542e-015
Head  -63.0394 -2.53223 19.5689
R_Clavicle  0.385545 -8.45905 1.85343
R_UpperArm  29.4536 18.3633 3.5457
R_Forearm  28.4343 -10.0999 8.48383
R_Hand  -1.25743 3.43584 -20.843
L_Clavicle  -0.395146 12.5273 1.36578
L_UpperArm  -26.4194 -4.99907 43.877
L_Forearm  1.94578 41.629 49.9286
L_Hand  -0.209534 5.83626 -1.91288
L_Thigh  -1.82157 -14.131 -6.51563
L_Calf  4.26314 0.942016 -6.26064
L_Foot  15.854 13.5864 35.283
L_Toe0  0.504189 0.0344536 -6.13695
R_Thigh  10.321 -0.985082 -6.87355
R_Calf  3.32433 -0.864165 -2.44393
R_Foot  0.0143849 5.59571 23.9977
R_Toe0  -1.78854 -0.27049 -17.3236
